<svg xmlns="http://www.w3.org/2000/svg" width="1024" height="1024" viewBox="0 0 1024 1024">
  <defs>
    <clipPath id="rounded-corners">
      <rect x="0" y="0" width="1024" height="1024" rx="205" ry="205"/>
    </clipPath>
  </defs>
  <g clip-path="url(#rounded-corners)">
    <rect x="0" y="0" width="1024" height="1024" fill="rgb(253,253,253)"/>
    <path d="M 329.73 475.84 C318.03,487.75 291.26,514.98 270.23,536.35 L 232.00 575.21 L 232.00 218.91 L 361.25 219.26 C489.22,219.61 490.63,219.63 503.50,221.82 C548.25,229.44 581.39,243.27 608.02,265.45 C627.85,281.96 644.09,305.90 649.46,326.52 L 650.99 332.39 L 641.24 342.45 C635.88,347.98 611.69,372.75 587.49,397.50 C563.28,422.25 539.24,446.89 534.07,452.25 C528.89,457.61 524.16,462.00 523.56,462.00 C522.96,462.00 517.80,457.32 512.09,451.59 L 501.71 441.18 L 507.07 438.47 C523.76,430.01 534.81,416.73 539.56,399.43 C542.05,390.36 542.60,370.22 540.62,360.50 C535.76,336.61 518.82,320.11 493.00,314.11 C476.68,310.32 466.13,309.85 407.49,310.34 C376.70,310.59 351.39,310.84 351.25,310.90 C351.11,310.95 351.00,343.22 351.00,382.59 L 351.00 454.19 ZM 768.00 747.50 C768.00,747.78 735.94,747.98 696.75,747.95 L 625.50 747.90 L 603.19 716.70 C590.92,699.54 571.88,673.00 560.88,657.71 L 540.88 629.93 L 543.48 626.84 C548.00,621.47 620.39,548.00 621.16,548.00 C622.24,548.00 660.82,599.87 709.66,667.00 C720.66,682.12 738.29,706.31 748.83,720.75 C759.37,735.19 768.00,747.23 768.00,747.50 ZM 356.00 687.92 L 356.00 748.00 L 297.00 748.00 C264.55,748.00 238.00,747.66 238.01,747.25 C238.02,746.35 353.73,628.65 355.07,628.17 C355.64,627.96 356.00,651.23 356.00,687.92 Z" fill="rgb(32,58,87)"/>
    <path d="M 298.21 658.25 C261.73,694.96 231.80,725.00 231.69,725.00 C231.59,725.00 231.50,697.35 231.50,663.55 L 231.50 602.11 L 247.50 585.81 C256.30,576.85 297.71,534.86 339.53,492.51 C381.35,450.15 418.66,412.24 422.45,408.25 C426.23,404.26 429.70,401.00 430.17,401.00 C430.63,401.00 440.79,410.34 452.76,421.75 C464.72,433.16 485.47,452.81 498.87,465.41 C522.00,487.18 523.33,488.26 525.36,486.91 C527.62,485.42 555.08,457.60 622.51,388.50 C645.05,365.40 671.04,338.85 680.27,329.50 L 697.06 312.50 L 692.72 308.50 C690.33,306.30 678.05,295.09 665.44,283.58 C652.82,272.08 642.37,262.35 642.21,261.97 C641.91,261.25 642.53,261.09 678.50,252.57 C691.15,249.58 710.72,244.87 722.00,242.12 C733.28,239.37 750.15,235.27 759.50,233.01 C768.85,230.75 782.80,227.37 790.50,225.50 C823.01,217.59 854.83,210.00 855.46,210.00 C855.61,210.00 854.92,213.94 853.92,218.75 C849.01,242.37 842.68,272.67 838.50,292.50 C835.96,304.60 831.89,324.17 829.47,336.00 C827.06,347.83 823.69,364.02 821.99,372.00 C820.29,379.98 817.65,392.47 816.11,399.76 C814.58,407.05 813.05,413.28 812.73,413.60 C812.12,414.21 803.17,406.71 787.50,392.44 C782.55,387.93 775.35,381.47 771.50,378.08 L 764.50 371.91 L 760.59 376.20 C755.69,381.58 728.49,409.55 699.51,439.00 C672.81,466.13 540.72,601.16 532.99,609.22 L 527.50 614.94 L 506.00 594.35 C450.58,541.27 432.89,524.48 432.09,524.21 C431.62,524.04 430.62,524.55 429.87,525.34 C425.28,530.15 354.83,601.27 298.21,658.25 Z" fill="rgb(214,164,45)"/>
  </g>
</svg>
